<?xml version="1.0" encoding="utf-8"?>
<!-- Generator: Adobe Illustrator 24.0.1, SVG Export Plug-In . SVG Version: 6.00 Build 0)  -->
<svg version="1.1" id="Layer_1" xmlns="http://www.w3.org/2000/svg" xmlns:xlink="http://www.w3.org/1999/xlink" x="0px" y="0px"
	 viewBox="0 0 536 540" style="enable-background:new 0 0 536 540;" xml:space="preserve">
<style type="text/css">
	.st0{fill:#000000;}
</style>
<path class="st0" d="M12,89c0-0.3,0-0.7,0-1c18.9-18.8,37.8-37.6,56.7-56.4c4.5-4.5,8.8-9.1,13.5-14
	C144.4,79.8,206.1,141.5,268,203.3c61.9-61.9,123.6-123.6,186-186.1c1.6,2,2.7,3.7,4.1,5.1C480.1,44.3,502,66.1,524,88
	c0,0.3,0,0.7,0,1c-1.5,1.3-3.1,2.5-4.5,3.8c-82.4,82.3-164.7,164.7-247,247.1c-1.4,1.4-2.3,3.3-3.4,4.9c-0.7,0-1.4,0-2.1,0
	c-1.1-1.6-2.1-3.5-3.5-4.9c-82.3-82.4-164.7-164.7-247-247.1C15.1,91.4,13.5,90.2,12,89z"/>
<path class="st0" d="M269,529c-0.7,0-1.3,0-2,0c-1.1-1.4-2.2-2.9-3.5-4.1c-82.5-82.5-164.9-165-247.4-247.4
	c-1.3-1.3-2.7-2.3-4.1-3.5c0-0.3,0-0.7,0-1c1.2-1.1,2.5-2.2,3.7-3.3c21-21,41.9-41.9,62.9-62.9c1.2-1.2,2.5-2.4,4.6-4.4
	c62,62,123.6,123.7,185.7,185.7c61.4-61.4,123.1-123.1,185.6-185.6c1.3,1.7,2.4,3.5,3.8,4.9c21.9,21.9,43.9,43.7,65.8,65.6
	c0,0.3,0,0.7,0,1c-1.3,1-2.6,2-3.8,3.1c-82.7,82.7-165.4,165.4-248.1,248.1C271,526.4,270,527.7,269,529z"/>
</svg>
